# xmcd
#
# Track frame offsets: 
#        150
#        11997
#        22523
#        34172
#        43915
#        55745
#        67785
#        80236
#        93173
#        104573
#        116221
#        128419
#        138321
#        149792
#        158230
#        167623
#        179443
#        189864
#        200901
#
# Disc length: 2835 seconds
#
# Revision: 0
# Processed by: cddbd v1.5.2PL0 Copyright (c) Steve Scherf et al.
# Submitted via: ExactAudioCopy v1.1
#
DISCID=0b0b1113
DTITLE=Bobby Blue Bland - absolutely essential collection CD3
DYEAR=1900
DGENRE=Soul
TTITLE0=turn on your love light
TTITLE1=I've been wrong for so long
TTITLE2=wishing well
TTITLE3=teach me how to love you
TTITLE4=I smell trouble
TTITLE5=I don't believe
TTITLE6=woke up screaming
TTITLE7=last night
TTITLE8=ain't that lovin' you
TTITLE9=I lost sight of the world
TTITLE10=cry, cry, cry
TTITLE11=someday
TTITLE12=I've just got to forget about you
TTITLE13=that's why
TTITLE14=close to you
TTITLE15=how does a cheatin' woman feel?
TTITLE16=hold me tenderly
TTITLE17=is it real
TTITLE18=that's the way love is
EXTD=
EXTT0=
EXTT1=
EXTT2=
EXTT3=
EXTT4=
EXTT5=
EXTT6=
EXTT7=
EXTT8=
EXTT9=
EXTT10=
EXTT11=
EXTT12=
EXTT13=
EXTT14=
EXTT15=
EXTT16=
EXTT17=
EXTT18=
PLAYORDER=
